<svg width="120" height="120" viewBox="0 0 120 120" fill="none" xmlns="http://www.w3.org/2000/svg">
<circle cx="60" cy="60" r="60" fill="#A06A82"/>
<path d="M32.716 53.04H35.422V62.632C35.422 63.6 35.6347 64.3627 36.06 64.92C36.4853 65.4627 37.1673 65.734 38.106 65.734C39.0447 65.734 39.7267 65.4627 40.152 64.92C40.5773 64.3627 40.79 63.6 40.79 62.632V53.04H43.496V62.632C43.496 64.3187 43.0487 65.6753 42.154 66.702C41.2593 67.714 39.91 68.22 38.106 68.22C36.2873 68.22 34.9307 67.714 34.036 66.702C33.156 65.6753 32.716 64.3187 32.716 62.632V53.04ZM49.9307 68H47.2907V53.04H49.9307V68ZM58.2602 51.72H60.8562L53.7282 71.146H51.1322L58.2602 51.72ZM62.3644 53.04H65.0704V62.632C65.0704 63.6 65.2831 64.3627 65.7084 64.92C66.1338 65.4627 66.8158 65.734 67.7544 65.734C68.6931 65.734 69.3751 65.4627 69.8004 64.92C70.2258 64.3627 70.4384 63.6 70.4384 62.632V53.04H73.1444V62.632C73.1444 64.3187 72.6971 65.6753 71.8024 66.702C70.9078 67.714 69.5584 68.22 67.7544 68.22C65.9358 68.22 64.5791 67.714 63.6844 66.702C62.8044 65.6753 62.3644 64.3187 62.3644 62.632V53.04ZM84.0671 68L80.9431 62.522L77.9731 68H75.2011L79.5791 60.234L75.4431 53.04H78.4351L81.3171 58.056L84.0231 53.04H86.7951L82.6811 60.366L87.0591 68H84.0671Z" fill="white"/>
</svg>
