<svg width="120" height="120" viewBox="0 0 120 120" fill="none" xmlns="http://www.w3.org/2000/svg">
<circle cx="60" cy="60" r="60" fill="#A06A82"/>
<path d="M13.068 68V53.04H17.622C18.7367 53.04 19.6167 53.2013 20.262 53.524C20.922 53.8467 21.3913 54.3013 21.67 54.888C21.9633 55.4747 22.11 56.164 22.11 56.956V57.572C22.11 58.7307 21.6113 59.618 20.614 60.234C21.318 60.5127 21.8533 60.916 22.22 61.444C22.5867 61.972 22.77 62.6027 22.77 63.336V63.952C22.77 64.7587 22.6233 65.47 22.33 66.086C22.0367 66.6873 21.5527 67.1567 20.878 67.494C20.2033 67.8313 19.3013 68 18.172 68H13.068ZM17.622 55.46H15.708V59.2H17.622C18.2087 59.2 18.6487 59.068 18.942 58.804C19.25 58.5253 19.404 58.1513 19.404 57.682V56.956C19.404 56.4867 19.25 56.12 18.942 55.856C18.6487 55.592 18.2087 55.46 17.622 55.46ZM18.172 61.62H15.708V65.58H18.172C18.788 65.58 19.2573 65.4333 19.58 65.14C19.9027 64.8467 20.064 64.4507 20.064 63.952V63.226C20.064 62.7273 19.9027 62.3387 19.58 62.06C19.2573 61.7667 18.788 61.62 18.172 61.62ZM34.7371 61.752V63.072C34.7371 64.6267 34.3118 65.8733 33.4611 66.812C32.6105 67.7507 31.4078 68.22 29.8531 68.22C28.2985 68.22 27.0958 67.7507 26.2451 66.812C25.3945 65.8733 24.9691 64.6267 24.9691 63.072V61.752C24.9691 60.1973 25.3871 58.958 26.2231 58.034C27.0738 57.0953 28.2838 56.626 29.8531 56.626C31.4225 56.626 32.6251 57.0953 33.4611 58.034C34.3118 58.958 34.7371 60.1973 34.7371 61.752ZM32.1411 61.752C32.1411 60.8573 31.9431 60.1607 31.5471 59.662C31.1511 59.1487 30.5865 58.892 29.8531 58.892C29.1198 58.892 28.5551 59.1487 28.1591 59.662C27.7631 60.1607 27.5651 60.8573 27.5651 61.752V63.072C27.5651 63.9667 27.7631 64.6707 28.1591 65.184C28.5551 65.6973 29.1198 65.954 29.8531 65.954C30.5865 65.954 31.1511 65.6973 31.5471 65.184C31.9431 64.6707 32.1411 63.9667 32.1411 63.072V61.752ZM46.7039 61.752V63.072C46.7039 64.6267 46.2786 65.8733 45.4279 66.812C44.5773 67.7507 43.3746 68.22 41.8199 68.22C40.2653 68.22 39.0626 67.7507 38.2119 66.812C37.3613 65.8733 36.9359 64.6267 36.9359 63.072V61.752C36.9359 60.1973 37.3539 58.958 38.1899 58.034C39.0406 57.0953 40.2506 56.626 41.8199 56.626C43.3893 56.626 44.5919 57.0953 45.4279 58.034C46.2786 58.958 46.7039 60.1973 46.7039 61.752ZM44.1079 61.752C44.1079 60.8573 43.9099 60.1607 43.5139 59.662C43.1179 59.1487 42.5533 58.892 41.8199 58.892C41.0866 58.892 40.5219 59.1487 40.1259 59.662C39.7299 60.1607 39.5319 60.8573 39.5319 61.752V63.072C39.5319 63.9667 39.7299 64.6707 40.1259 65.184C40.5219 65.6973 41.0866 65.954 41.8199 65.954C42.5533 65.954 43.1179 65.6973 43.5139 65.184C43.9099 64.6707 44.1079 63.9667 44.1079 63.072V61.752ZM56.2507 67.626C55.8694 67.802 55.4294 67.9413 54.9307 68.044C54.4321 68.1613 53.9261 68.22 53.4127 68.22C52.5621 68.22 51.8801 68.044 51.3667 67.692C50.8534 67.34 50.4794 66.8487 50.2447 66.218C50.0247 65.5873 49.9147 64.8687 49.9147 64.062V59.046H48.1107V56.846H49.9147V53.942H52.4447V56.846H55.9207V59.046H52.4447V64.062C52.4447 64.7367 52.5694 65.206 52.8187 65.47C53.0827 65.7193 53.4567 65.844 53.9407 65.844C54.1754 65.844 54.4247 65.822 54.6887 65.778C54.9674 65.7193 55.2754 65.624 55.6127 65.492L56.2507 67.626ZM61.4089 66.02C61.9515 66.02 62.3989 65.932 62.7509 65.756C63.1029 65.5653 63.2789 65.2867 63.2789 64.92C63.2789 64.5973 63.1615 64.348 62.9269 64.172C62.7069 63.9813 62.3035 63.8127 61.7169 63.666L60.4629 63.336C59.4949 63.0867 58.7762 62.6687 58.3069 62.082C57.8522 61.4953 57.6249 60.7987 57.6249 59.992C57.6249 59.0387 57.9549 58.2393 58.6149 57.594C59.2749 56.9487 60.2942 56.626 61.6729 56.626C62.2302 56.626 62.8169 56.692 63.4329 56.824C64.0489 56.956 64.6942 57.1687 65.3689 57.462L64.6429 59.618C64.0269 59.3247 63.4695 59.1193 62.9709 59.002C62.4722 58.8847 62.0322 58.826 61.6509 58.826C60.6095 58.826 60.0889 59.178 60.0889 59.882C60.0889 60.1607 60.1769 60.3807 60.3529 60.542C60.5435 60.7033 60.8882 60.85 61.3869 60.982L62.6409 61.312C63.7115 61.5907 64.4889 62.016 64.9729 62.588C65.4715 63.16 65.7209 63.8787 65.7209 64.744C65.7209 65.7707 65.3689 66.6067 64.6649 67.252C63.9755 67.8973 62.8829 68.22 61.3869 68.22C60.1109 68.22 58.7689 67.9267 57.3609 67.34L58.0429 65.25C58.7322 65.5287 59.3555 65.7267 59.9129 65.844C60.4702 65.9613 60.9689 66.02 61.4089 66.02ZM75.0281 67.626C74.6467 67.802 74.2067 67.9413 73.7081 68.044C73.2094 68.1613 72.7034 68.22 72.1901 68.22C71.3394 68.22 70.6574 68.044 70.1441 67.692C69.6307 67.34 69.2567 66.8487 69.0221 66.218C68.8021 65.5873 68.6921 64.8687 68.6921 64.062V59.046H66.8881V56.846H68.6921V53.942H71.2221V56.846H74.6981V59.046H71.2221V64.062C71.2221 64.7367 71.3467 65.206 71.5961 65.47C71.8601 65.7193 72.2341 65.844 72.7181 65.844C72.9527 65.844 73.2021 65.822 73.4661 65.778C73.7447 65.7193 74.0527 65.624 74.3901 65.492L75.0281 67.626ZM83.3542 59.156C82.6649 59.156 82.0049 59.266 81.3742 59.486C80.7582 59.6913 80.1642 60.0287 79.5922 60.498V68H77.0622V56.846H79.4602V58.562C80.2082 57.858 80.8756 57.3593 81.4622 57.066C82.0489 56.7727 82.6796 56.626 83.3542 56.626V59.156ZM94.018 68.11C93.27 68.11 92.6687 67.956 92.214 67.648C91.774 67.34 91.4514 66.9587 91.246 66.504C90.6154 67.0907 90.0067 67.5233 89.42 67.802C88.8334 68.0807 88.2027 68.22 87.528 68.22C86.5454 68.22 85.8194 67.9047 85.35 67.274C84.8954 66.6433 84.668 65.844 84.668 64.876C84.668 64.2307 84.7854 63.666 85.02 63.182C85.2694 62.6833 85.6727 62.2947 86.23 62.016C86.7874 61.7373 87.55 61.598 88.518 61.598C88.8994 61.598 89.2954 61.6273 89.706 61.686C90.1167 61.73 90.5274 61.7887 90.938 61.862V60.564C90.938 59.948 90.7694 59.53 90.432 59.31C90.0947 59.0753 89.64 58.958 89.068 58.958C88.628 58.958 88.144 59.0167 87.616 59.134C87.1027 59.2513 86.5454 59.4347 85.944 59.684L85.218 57.528C86.6994 56.9267 88.0414 56.626 89.244 56.626C90.3294 56.626 91.1654 56.8093 91.752 57.176C92.3534 57.5427 92.7714 58.0267 93.006 58.628C93.2407 59.2293 93.358 59.8747 93.358 60.564V64.854C93.358 65.074 93.4167 65.2867 93.534 65.492C93.666 65.6827 93.9154 65.778 94.282 65.778H94.524V68.11H94.018ZM87.11 64.832C87.11 65.228 87.198 65.5433 87.374 65.778C87.55 65.998 87.8067 66.108 88.144 66.108C88.4814 66.108 88.8627 66.02 89.288 65.844C89.7134 65.668 90.2634 65.2573 90.938 64.612V63.666C90.1754 63.534 89.4274 63.468 88.694 63.468C88.122 63.468 87.7114 63.5853 87.462 63.82C87.2274 64.0547 87.11 64.392 87.11 64.832ZM101.494 68.22C101.128 68.22 100.754 68.1833 100.372 68.11C100.006 68.0367 99.6318 67.934 99.2504 67.802V72.686H96.7204V56.846H99.1184V58.364C99.8078 57.6747 100.394 57.2127 100.878 56.978C101.362 56.7433 101.868 56.626 102.396 56.626C103.614 56.626 104.552 57.0807 105.212 57.99C105.872 58.8993 106.202 60.1753 106.202 61.818V63.006C106.202 64.6047 105.799 65.8733 104.992 66.812C104.186 67.7507 103.02 68.22 101.494 68.22ZM101.714 58.98C101.377 58.98 101.018 59.0827 100.636 59.288C100.27 59.4787 99.8078 59.8527 99.2504 60.41V65.514C99.9691 65.8073 100.629 65.954 101.23 65.954C102.081 65.954 102.69 65.69 103.056 65.162C103.423 64.634 103.606 63.9153 103.606 63.006V61.818C103.606 60.8353 103.438 60.1167 103.1 59.662C102.778 59.2073 102.316 58.98 101.714 58.98Z" fill="white"/>
</svg>
