<svg width="120" height="120" viewBox="0 0 120 120" fill="none" xmlns="http://www.w3.org/2000/svg">
<circle cx="60" cy="60" r="60" fill="#A06A82"/>
<path d="M25.708 62.5V68H23.068V53.04H28.062C29.5727 53.04 30.7313 53.4287 31.538 54.206C32.3593 54.9687 32.77 55.9953 32.77 57.286V58.232C32.77 59.0827 32.5867 59.8307 32.22 60.476C31.8533 61.1213 31.3253 61.6127 30.636 61.95C31.8387 64.0033 32.8653 66.02 33.716 68H30.702C29.9687 66.1667 29.096 64.3333 28.084 62.5H25.708ZM28.062 55.46H25.708V60.08H28.062C28.7073 60.08 29.1987 59.9187 29.536 59.596C29.888 59.2587 30.064 58.804 30.064 58.232V57.286C30.064 56.7287 29.888 56.2887 29.536 55.966C29.1987 55.6287 28.7073 55.46 28.062 55.46ZM44.6143 67.362C43.8516 67.67 43.1329 67.89 42.4583 68.022C41.7836 68.154 41.1456 68.22 40.5443 68.22C38.8869 68.22 37.6329 67.7507 36.7823 66.812C35.9316 65.8733 35.5063 64.6267 35.5063 63.072V61.752C35.5063 60.7107 35.6969 59.8087 36.0783 59.046C36.4596 58.2833 37.0023 57.6893 37.7063 57.264C38.4103 56.8387 39.2389 56.626 40.1923 56.626C40.9696 56.626 41.6956 56.7873 42.3703 57.11C43.0596 57.418 43.6169 57.9093 44.0423 58.584C44.4823 59.244 44.7023 60.0947 44.7023 61.136C44.7023 61.444 44.6803 61.774 44.6363 62.126C44.5923 62.4633 44.5189 62.8227 44.4163 63.204H37.9483C37.9776 64.1133 38.2049 64.7953 38.6303 65.25C39.0556 65.7047 39.7376 65.932 40.6763 65.932C41.1749 65.932 41.6883 65.8733 42.2163 65.756C42.7589 65.6387 43.3163 65.4627 43.8883 65.228L44.6143 67.362ZM40.1923 58.76C39.5176 58.76 38.9896 58.98 38.6083 59.42C38.2416 59.8453 38.0289 60.4613 37.9703 61.268H42.1943C42.2089 61.1947 42.2163 61.1287 42.2163 61.07C42.2163 60.9967 42.2163 60.9307 42.2163 60.872C42.2163 60.168 42.0183 59.64 41.6223 59.288C41.2263 58.936 40.7496 58.76 40.1923 58.76ZM56.0649 68.11C55.3169 68.11 54.7156 67.956 54.2609 67.648C53.8209 67.34 53.4982 66.9587 53.2929 66.504C52.6622 67.0907 52.0536 67.5233 51.4669 67.802C50.8802 68.0807 50.2496 68.22 49.5749 68.22C48.5922 68.22 47.8662 67.9047 47.3969 67.274C46.9422 66.6433 46.7149 65.844 46.7149 64.876C46.7149 64.2307 46.8322 63.666 47.0669 63.182C47.3162 62.6833 47.7196 62.2947 48.2769 62.016C48.8342 61.7373 49.5969 61.598 50.5649 61.598C50.9462 61.598 51.3422 61.6273 51.7529 61.686C52.1636 61.73 52.5742 61.7887 52.9849 61.862V60.564C52.9849 59.948 52.8162 59.53 52.4789 59.31C52.1416 59.0753 51.6869 58.958 51.1149 58.958C50.6749 58.958 50.1909 59.0167 49.6629 59.134C49.1496 59.2513 48.5922 59.4347 47.9909 59.684L47.2649 57.528C48.7462 56.9267 50.0882 56.626 51.2909 56.626C52.3762 56.626 53.2122 56.8093 53.7989 57.176C54.4002 57.5427 54.8182 58.0267 55.0529 58.628C55.2876 59.2293 55.4049 59.8747 55.4049 60.564V64.854C55.4049 65.074 55.4636 65.2867 55.5809 65.492C55.7129 65.6827 55.9622 65.778 56.3289 65.778H56.5709V68.11H56.0649ZM49.1569 64.832C49.1569 65.228 49.2449 65.5433 49.4209 65.778C49.5969 65.998 49.8536 66.108 50.1909 66.108C50.5282 66.108 50.9096 66.02 51.3349 65.844C51.7602 65.668 52.3102 65.2573 52.9849 64.612V63.666C52.2222 63.534 51.4742 63.468 50.7409 63.468C50.1689 63.468 49.7582 63.5853 49.5089 63.82C49.2742 64.0547 49.1569 64.392 49.1569 64.832ZM60.7033 61.774V63.072C60.7033 64.0107 60.872 64.7147 61.2093 65.184C61.5466 65.6533 62.0893 65.888 62.8373 65.888C63.204 65.888 63.6146 65.844 64.0693 65.756C64.5386 65.6533 65.0446 65.4993 65.5873 65.294L66.3133 67.428C65.6533 67.692 65.03 67.89 64.4433 68.022C63.8566 68.154 63.2773 68.22 62.7053 68.22C61.2386 68.22 60.1166 67.7507 59.3393 66.812C58.562 65.8733 58.1733 64.6267 58.1733 63.072V61.774C58.1733 60.2047 58.562 58.958 59.3393 58.034C60.1166 57.0953 61.2386 56.626 62.7053 56.626C63.2626 56.626 63.8273 56.692 64.3993 56.824C64.9713 56.956 65.5726 57.1467 66.2033 57.396L65.4773 59.574C64.4213 59.1633 63.5413 58.958 62.8373 58.958C62.0893 58.958 61.5466 59.1927 61.2093 59.662C60.872 60.1167 60.7033 60.8207 60.7033 61.774ZM75.3386 67.626C74.9573 67.802 74.5173 67.9413 74.0186 68.044C73.52 68.1613 73.014 68.22 72.5006 68.22C71.65 68.22 70.968 68.044 70.4546 67.692C69.9413 67.34 69.5673 66.8487 69.3326 66.218C69.1126 65.5873 69.0026 64.8687 69.0026 64.062V59.046H67.1986V56.846H69.0026V53.942H71.5326V56.846H75.0086V59.046H71.5326V64.062C71.5326 64.7367 71.6573 65.206 71.9066 65.47C72.1706 65.7193 72.5446 65.844 73.0286 65.844C73.2633 65.844 73.5126 65.822 73.7766 65.778C74.0553 65.7193 74.3633 65.624 74.7006 65.492L75.3386 67.626ZM80.6111 68.22V65.69C81.7991 65.69 82.6571 65.47 83.1851 65.03C83.7277 64.5753 83.9991 63.776 83.9991 62.632V53.04H86.6391V62.632C86.6391 63.776 86.4631 64.766 86.1111 65.602C85.7591 66.438 85.1431 67.0833 84.2631 67.538C83.3977 67.9927 82.1804 68.22 80.6111 68.22ZM93.6345 65.778C95.3359 65.778 96.1865 65.1473 96.1865 63.886C96.1865 63.3727 96.0545 62.9693 95.7905 62.676C95.5412 62.3827 95.0719 62.126 94.3825 61.906L92.5785 61.312C90.4225 60.608 89.3445 59.1927 89.3445 57.066C89.3445 55.834 89.7259 54.822 90.4885 54.03C91.2659 53.2233 92.4759 52.82 94.1185 52.82C94.8079 52.82 95.4899 52.9007 96.1645 53.062C96.8392 53.2087 97.5579 53.4507 98.3205 53.788L97.5065 56.054C96.8025 55.7753 96.2012 55.5773 95.7025 55.46C95.2185 55.328 94.7199 55.262 94.2065 55.262C93.5319 55.262 92.9965 55.3867 92.6005 55.636C92.2192 55.8707 92.0285 56.3033 92.0285 56.934C92.0285 57.4033 92.1605 57.792 92.4245 58.1C92.7032 58.3933 93.1579 58.6427 93.7885 58.848L95.5925 59.442C96.6779 59.8087 97.4919 60.344 98.0345 61.048C98.5919 61.7373 98.8705 62.654 98.8705 63.798C98.8705 65.118 98.4525 66.1887 97.6165 67.01C96.7805 67.8167 95.4679 68.22 93.6785 68.22C92.9745 68.22 92.2412 68.1393 91.4785 67.978C90.7305 67.802 89.9092 67.5087 89.0145 67.098L89.8285 64.832C90.6499 65.184 91.3465 65.4333 91.9185 65.58C92.5052 65.712 93.0772 65.778 93.6345 65.778Z" fill="white"/>
</svg>
