<svg width="120" height="120" viewBox="0 0 120 120" fill="none" xmlns="http://www.w3.org/2000/svg">
<circle cx="60" cy="60" r="60" fill="#A06A82"/>
<path d="M42.296 68V61.686H36.708V68H34.068V53.04H36.708V59.156H42.296V53.04H44.936V68H42.296ZM47.2821 55.57V53.04H58.2821V55.57H54.1021V68H51.4621V55.57H47.2821ZM63.5262 53.04L67.7062 63.27L71.8642 53.04H74.7462V68H72.2162V62.28L72.5462 57.044L68.8282 66.24H66.4742L62.8442 57.022L63.1742 62.28V68H60.6442V53.04H63.5262ZM87.5084 65.47V68H78.8844V53.04H81.5244V65.47H87.5084Z" fill="white"/>
</svg>
