<svg width="120" height="120" viewBox="0 0 120 120" fill="none" xmlns="http://www.w3.org/2000/svg">
<circle cx="60" cy="60" r="60" fill="#A06A82"/>
<path d="M8.286 55.57V53.04H19.286V55.57H15.106V68H12.466V55.57H8.286ZM25.8281 69.1C25.3441 70.4493 24.7281 71.4173 23.9801 72.004C23.2321 72.6053 22.2054 72.906 20.9001 72.906V70.376C21.6774 70.3467 22.2861 70.1707 22.7261 69.848C23.1807 69.54 23.5181 69.1073 23.7381 68.55L23.9361 68.044L19.9541 56.846H22.4621L24.3761 62.412L25.1241 64.766L25.8501 62.412L27.6761 56.846H30.1841L25.8281 69.1ZM37.0706 68.22C36.7039 68.22 36.3299 68.1833 35.9486 68.11C35.5819 68.0367 35.2079 67.934 34.8266 67.802V72.686H32.2966V56.846H34.6946V58.364C35.3839 57.6747 35.9706 57.2127 36.4546 56.978C36.9386 56.7433 37.4446 56.626 37.9726 56.626C39.1899 56.626 40.1286 57.0807 40.7886 57.99C41.4486 58.8993 41.7786 60.1753 41.7786 61.818V63.006C41.7786 64.6047 41.3753 65.8733 40.5686 66.812C39.7619 67.7507 38.5959 68.22 37.0706 68.22ZM37.2906 58.98C36.9533 58.98 36.5939 59.0827 36.2126 59.288C35.8459 59.4787 35.3839 59.8527 34.8266 60.41V65.514C35.5453 65.8073 36.2053 65.954 36.8066 65.954C37.6573 65.954 38.2659 65.69 38.6326 65.162C38.9993 64.634 39.1826 63.9153 39.1826 63.006V61.818C39.1826 60.8353 39.0139 60.1167 38.6766 59.662C38.3539 59.2073 37.8919 58.98 37.2906 58.98ZM53.1846 67.362C52.4219 67.67 51.7032 67.89 51.0286 68.022C50.3539 68.154 49.7159 68.22 49.1146 68.22C47.4572 68.22 46.2032 67.7507 45.3526 66.812C44.5019 65.8733 44.0766 64.6267 44.0766 63.072V61.752C44.0766 60.7107 44.2672 59.8087 44.6486 59.046C45.0299 58.2833 45.5726 57.6893 46.2766 57.264C46.9806 56.8387 47.8092 56.626 48.7626 56.626C49.5399 56.626 50.2659 56.7873 50.9406 57.11C51.6299 57.418 52.1872 57.9093 52.6126 58.584C53.0526 59.244 53.2726 60.0947 53.2726 61.136C53.2726 61.444 53.2506 61.774 53.2066 62.126C53.1626 62.4633 53.0892 62.8227 52.9866 63.204H46.5186C46.5479 64.1133 46.7752 64.7953 47.2006 65.25C47.6259 65.7047 48.3079 65.932 49.2466 65.932C49.7452 65.932 50.2586 65.8733 50.7866 65.756C51.3292 65.6387 51.8866 65.4627 52.4586 65.228L53.1846 67.362ZM48.7626 58.76C48.0879 58.76 47.5599 58.98 47.1786 59.42C46.8119 59.8453 46.5992 60.4613 46.5406 61.268H50.7646C50.7792 61.1947 50.7866 61.1287 50.7866 61.07C50.7866 60.9967 50.7866 60.9307 50.7866 60.872C50.7866 60.168 50.5886 59.64 50.1926 59.288C49.7966 58.936 49.3199 58.76 48.7626 58.76ZM59.3112 66.02C59.8539 66.02 60.3012 65.932 60.6532 65.756C61.0052 65.5653 61.1812 65.2867 61.1812 64.92C61.1812 64.5973 61.0639 64.348 60.8292 64.172C60.6092 63.9813 60.2059 63.8127 59.6192 63.666L58.3652 63.336C57.3972 63.0867 56.6786 62.6687 56.2092 62.082C55.7546 61.4953 55.5272 60.7987 55.5272 59.992C55.5272 59.0387 55.8572 58.2393 56.5172 57.594C57.1772 56.9487 58.1966 56.626 59.5752 56.626C60.1326 56.626 60.7192 56.692 61.3352 56.824C61.9512 56.956 62.5966 57.1687 63.2712 57.462L62.5452 59.618C61.9292 59.3247 61.3719 59.1193 60.8732 59.002C60.3746 58.8847 59.9346 58.826 59.5532 58.826C58.5119 58.826 57.9912 59.178 57.9912 59.882C57.9912 60.1607 58.0792 60.3807 58.2552 60.542C58.4459 60.7033 58.7906 60.85 59.2892 60.982L60.5432 61.312C61.6139 61.5907 62.3912 62.016 62.8752 62.588C63.3739 63.16 63.6232 63.8787 63.6232 64.744C63.6232 65.7707 63.2712 66.6067 62.5672 67.252C61.8779 67.8973 60.7852 68.22 59.2892 68.22C58.0132 68.22 56.6712 67.9267 55.2632 67.34L55.9452 65.25C56.6346 65.5287 57.2579 65.7267 57.8152 65.844C58.3726 65.9613 58.8712 66.02 59.3112 66.02ZM68.1564 61.774V63.072C68.1564 64.0107 68.3251 64.7147 68.6624 65.184C68.9998 65.6533 69.5424 65.888 70.2904 65.888C70.6571 65.888 71.0678 65.844 71.5224 65.756C71.9918 65.6533 72.4978 65.4993 73.0404 65.294L73.7664 67.428C73.1064 67.692 72.4831 67.89 71.8964 68.022C71.3098 68.154 70.7304 68.22 70.1584 68.22C68.6918 68.22 67.5698 67.7507 66.7924 66.812C66.0151 65.8733 65.6264 64.6267 65.6264 63.072V61.774C65.6264 60.2047 66.0151 58.958 66.7924 58.034C67.5698 57.0953 68.6918 56.626 70.1584 56.626C70.7158 56.626 71.2804 56.692 71.8524 56.824C72.4244 56.956 73.0258 57.1467 73.6564 57.396L72.9304 59.574C71.8744 59.1633 70.9944 58.958 70.2904 58.958C69.5424 58.958 68.9998 59.1927 68.6624 59.662C68.3251 60.1167 68.1564 60.8207 68.1564 61.774ZM82.3738 59.156C81.6844 59.156 81.0244 59.266 80.3938 59.486C79.7778 59.6913 79.1838 60.0287 78.6118 60.498V68H76.0818V56.846H78.4798V58.562C79.2278 57.858 79.8951 57.3593 80.4818 57.066C81.0684 56.7727 81.6991 56.626 82.3738 56.626V59.156ZM87.1856 54.734H84.5236V52.116H87.1856V54.734ZM87.1196 68H84.5896V56.846H87.1196V68ZM95.3792 68.22C95.0125 68.22 94.6385 68.1833 94.2572 68.11C93.8905 68.0367 93.5165 67.934 93.1352 67.802V72.686H90.6052V56.846H93.0032V58.364C93.6925 57.6747 94.2792 57.2127 94.7632 56.978C95.2472 56.7433 95.7532 56.626 96.2812 56.626C97.4985 56.626 98.4372 57.0807 99.0972 57.99C99.7572 58.8993 100.087 60.1753 100.087 61.818V63.006C100.087 64.6047 99.6839 65.8733 98.8772 66.812C98.0705 67.7507 96.9045 68.22 95.3792 68.22ZM95.5992 58.98C95.2619 58.98 94.9025 59.0827 94.5212 59.288C94.1545 59.4787 93.6925 59.8527 93.1352 60.41V65.514C93.8539 65.8073 94.5139 65.954 95.1152 65.954C95.9659 65.954 96.5745 65.69 96.9412 65.162C97.3079 64.634 97.4912 63.9153 97.4912 63.006V61.818C97.4912 60.8353 97.3225 60.1167 96.9852 59.662C96.6625 59.2073 96.2005 58.98 95.5992 58.98ZM109.733 67.626C109.352 67.802 108.912 67.9413 108.413 68.044C107.914 68.1613 107.408 68.22 106.895 68.22C106.044 68.22 105.362 68.044 104.849 67.692C104.336 67.34 103.962 66.8487 103.727 66.218C103.507 65.5873 103.397 64.8687 103.397 64.062V59.046H101.593V56.846H103.397V53.942H105.927V56.846H109.403V59.046H105.927V64.062C105.927 64.7367 106.052 65.206 106.301 65.47C106.565 65.7193 106.939 65.844 107.423 65.844C107.658 65.844 107.907 65.822 108.171 65.778C108.45 65.7193 108.758 65.624 109.095 65.492L109.733 67.626Z" fill="white"/>
</svg>
