<svg width="120" height="120" viewBox="0 0 120 120" fill="none" xmlns="http://www.w3.org/2000/svg">
<circle cx="60" cy="60" r="60" fill="#A06A82"/>
<path d="M47.092 62.082C47.092 63.1527 47.3267 64.0327 47.796 64.722C48.2653 65.3967 49.0353 65.734 50.106 65.734C50.546 65.734 51.0007 65.6753 51.47 65.558C51.954 65.4407 52.548 65.2427 53.252 64.964L54.066 67.252C53.274 67.604 52.5407 67.8533 51.866 68C51.206 68.1467 50.568 68.22 49.952 68.22C48.72 68.22 47.686 67.956 46.85 67.428C46.0287 66.9 45.4127 66.174 45.002 65.25C44.5913 64.326 44.386 63.27 44.386 62.082V58.936C44.386 57.748 44.5913 56.692 45.002 55.768C45.4127 54.844 46.0287 54.1253 46.85 53.612C47.686 53.084 48.72 52.82 49.952 52.82C50.5533 52.82 51.1767 52.8933 51.822 53.04C52.4673 53.172 53.1713 53.4067 53.934 53.744L53.12 56.076C52.4453 55.7973 51.8807 55.5993 51.426 55.482C50.9713 55.3647 50.5313 55.306 50.106 55.306C49.0353 55.306 48.2653 55.6433 47.796 56.318C47.3267 56.9927 47.092 57.8653 47.092 58.936V62.082ZM60.076 65.778C61.7773 65.778 62.628 65.1473 62.628 63.886C62.628 63.3727 62.496 62.9693 62.232 62.676C61.9826 62.3827 61.5133 62.126 60.824 61.906L59.02 61.312C56.864 60.608 55.786 59.1927 55.786 57.066C55.786 55.834 56.1673 54.822 56.93 54.03C57.7073 53.2233 58.9173 52.82 60.56 52.82C61.2493 52.82 61.9313 52.9007 62.606 53.062C63.2806 53.2087 63.9993 53.4507 64.762 53.788L63.948 56.054C63.244 55.7753 62.6426 55.5773 62.144 55.46C61.66 55.328 61.1613 55.262 60.648 55.262C59.9733 55.262 59.438 55.3867 59.042 55.636C58.6606 55.8707 58.47 56.3033 58.47 56.934C58.47 57.4033 58.602 57.792 58.866 58.1C59.1446 58.3933 59.5993 58.6427 60.23 58.848L62.034 59.442C63.1193 59.8087 63.9333 60.344 64.476 61.048C65.0333 61.7373 65.312 62.654 65.312 63.798C65.312 65.118 64.894 66.1887 64.058 67.01C63.222 67.8167 61.9093 68.22 60.12 68.22C59.416 68.22 58.6826 68.1393 57.92 67.978C57.172 67.802 56.3506 67.5087 55.456 67.098L56.27 64.832C57.0913 65.184 57.788 65.4333 58.36 65.58C58.9466 65.712 59.5186 65.778 60.076 65.778ZM71.4627 65.778C73.164 65.778 74.0147 65.1473 74.0147 63.886C74.0147 63.3727 73.8827 62.9693 73.6187 62.676C73.3693 62.3827 72.9 62.126 72.2107 61.906L70.4067 61.312C68.2507 60.608 67.1727 59.1927 67.1727 57.066C67.1727 55.834 67.554 54.822 68.3167 54.03C69.094 53.2233 70.304 52.82 71.9467 52.82C72.636 52.82 73.318 52.9007 73.9927 53.062C74.6673 53.2087 75.386 53.4507 76.1487 53.788L75.3347 56.054C74.6307 55.7753 74.0293 55.5773 73.5307 55.46C73.0467 55.328 72.548 55.262 72.0347 55.262C71.36 55.262 70.8247 55.3867 70.4287 55.636C70.0473 55.8707 69.8567 56.3033 69.8567 56.934C69.8567 57.4033 69.9887 57.792 70.2527 58.1C70.5313 58.3933 70.986 58.6427 71.6167 58.848L73.4207 59.442C74.506 59.8087 75.32 60.344 75.8627 61.048C76.42 61.7373 76.6987 62.654 76.6987 63.798C76.6987 65.118 76.2807 66.1887 75.4447 67.01C74.6087 67.8167 73.296 68.22 71.5067 68.22C70.8027 68.22 70.0693 68.1393 69.3067 67.978C68.5587 67.802 67.7373 67.5087 66.8427 67.098L67.6567 64.832C68.478 65.184 69.1747 65.4333 69.7467 65.58C70.3333 65.712 70.9053 65.778 71.4627 65.778Z" fill="white"/>
</svg>
