<svg width="120" height="120" viewBox="0 0 120 120" fill="none" xmlns="http://www.w3.org/2000/svg">
<circle cx="60" cy="60" r="60" fill="#A06A82"/>
<path d="M12.572 68.22V65.69C13.76 65.69 14.618 65.47 15.146 65.03C15.6887 64.5753 15.96 63.776 15.96 62.632V53.04H18.6V62.632C18.6 63.776 18.424 64.766 18.072 65.602C17.72 66.438 17.104 67.0833 16.224 67.538C15.3587 67.9927 14.1413 68.22 12.572 68.22ZM30.4575 68.11C29.7095 68.11 29.1082 67.956 28.6535 67.648C28.2135 67.34 27.8908 66.9587 27.6855 66.504C27.0548 67.0907 26.4462 67.5233 25.8595 67.802C25.2728 68.0807 24.6422 68.22 23.9675 68.22C22.9848 68.22 22.2588 67.9047 21.7895 67.274C21.3348 66.6433 21.1075 65.844 21.1075 64.876C21.1075 64.2307 21.2248 63.666 21.4595 63.182C21.7088 62.6833 22.1122 62.2947 22.6695 62.016C23.2268 61.7373 23.9895 61.598 24.9575 61.598C25.3388 61.598 25.7348 61.6273 26.1455 61.686C26.5562 61.73 26.9668 61.7887 27.3775 61.862V60.564C27.3775 59.948 27.2088 59.53 26.8715 59.31C26.5342 59.0753 26.0795 58.958 25.5075 58.958C25.0675 58.958 24.5835 59.0167 24.0555 59.134C23.5422 59.2513 22.9848 59.4347 22.3835 59.684L21.6575 57.528C23.1388 56.9267 24.4808 56.626 25.6835 56.626C26.7688 56.626 27.6048 56.8093 28.1915 57.176C28.7928 57.5427 29.2108 58.0267 29.4455 58.628C29.6802 59.2293 29.7975 59.8747 29.7975 60.564V64.854C29.7975 65.074 29.8562 65.2867 29.9735 65.492C30.1055 65.6827 30.3548 65.778 30.7215 65.778H30.9635V68.11H30.4575ZM23.5495 64.832C23.5495 65.228 23.6375 65.5433 23.8135 65.778C23.9895 65.998 24.2462 66.108 24.5835 66.108C24.9208 66.108 25.3022 66.02 25.7275 65.844C26.1528 65.668 26.7028 65.2573 27.3775 64.612V63.666C26.6148 63.534 25.8668 63.468 25.1335 63.468C24.5615 63.468 24.1508 63.5853 23.9015 63.82C23.6668 64.0547 23.5495 64.392 23.5495 64.832ZM41.7036 56.846L37.7436 68H35.4336L31.4736 56.846H34.0256L35.9396 62.412L36.6656 64.722L37.3696 62.412L39.1956 56.846H41.7036ZM52.2641 68.11C51.5161 68.11 50.9148 67.956 50.4601 67.648C50.0201 67.34 49.6975 66.9587 49.4921 66.504C48.8615 67.0907 48.2528 67.5233 47.6661 67.802C47.0795 68.0807 46.4488 68.22 45.7741 68.22C44.7915 68.22 44.0655 67.9047 43.5961 67.274C43.1415 66.6433 42.9141 65.844 42.9141 64.876C42.9141 64.2307 43.0315 63.666 43.2661 63.182C43.5155 62.6833 43.9188 62.2947 44.4761 62.016C45.0335 61.7373 45.7961 61.598 46.7641 61.598C47.1455 61.598 47.5415 61.6273 47.9521 61.686C48.3628 61.73 48.7735 61.7887 49.1841 61.862V60.564C49.1841 59.948 49.0155 59.53 48.6781 59.31C48.3408 59.0753 47.8861 58.958 47.3141 58.958C46.8741 58.958 46.3901 59.0167 45.8621 59.134C45.3488 59.2513 44.7915 59.4347 44.1901 59.684L43.4641 57.528C44.9455 56.9267 46.2875 56.626 47.4901 56.626C48.5755 56.626 49.4115 56.8093 49.9981 57.176C50.5995 57.5427 51.0175 58.0267 51.2521 58.628C51.4868 59.2293 51.6041 59.8747 51.6041 60.564V64.854C51.6041 65.074 51.6628 65.2867 51.7801 65.492C51.9121 65.6827 52.1615 65.778 52.5281 65.778H52.7701V68.11H52.2641ZM45.3561 64.832C45.3561 65.228 45.4441 65.5433 45.6201 65.778C45.7961 65.998 46.0528 66.108 46.3901 66.108C46.7275 66.108 47.1088 66.02 47.5341 65.844C47.9595 65.668 48.5095 65.2573 49.1841 64.612V63.666C48.4215 63.534 47.6735 63.468 46.9401 63.468C46.3681 63.468 45.9575 63.5853 45.7081 63.82C45.4735 64.0547 45.3561 64.392 45.3561 64.832ZM58.0905 66.02C58.6332 66.02 59.0805 65.932 59.4325 65.756C59.7845 65.5653 59.9605 65.2867 59.9605 64.92C59.9605 64.5973 59.8432 64.348 59.6085 64.172C59.3885 63.9813 58.9852 63.8127 58.3985 63.666L57.1445 63.336C56.1765 63.0867 55.4578 62.6687 54.9885 62.082C54.5338 61.4953 54.3065 60.7987 54.3065 59.992C54.3065 59.0387 54.6365 58.2393 55.2965 57.594C55.9565 56.9487 56.9758 56.626 58.3545 56.626C58.9118 56.626 59.4985 56.692 60.1145 56.824C60.7305 56.956 61.3758 57.1687 62.0505 57.462L61.3245 59.618C60.7085 59.3247 60.1512 59.1193 59.6525 59.002C59.1538 58.8847 58.7138 58.826 58.3325 58.826C57.2912 58.826 56.7705 59.178 56.7705 59.882C56.7705 60.1607 56.8585 60.3807 57.0345 60.542C57.2252 60.7033 57.5698 60.85 58.0685 60.982L59.3225 61.312C60.3932 61.5907 61.1705 62.016 61.6545 62.588C62.1532 63.16 62.4025 63.8787 62.4025 64.744C62.4025 65.7707 62.0505 66.6067 61.3465 67.252C60.6572 67.8973 59.5645 68.22 58.0685 68.22C56.7925 68.22 55.4505 67.9267 54.0425 67.34L54.7245 65.25C55.4138 65.5287 56.0372 65.7267 56.5945 65.844C57.1518 65.9613 57.6505 66.02 58.0905 66.02ZM66.9357 61.774V63.072C66.9357 64.0107 67.1044 64.7147 67.4417 65.184C67.7791 65.6533 68.3217 65.888 69.0697 65.888C69.4364 65.888 69.8471 65.844 70.3017 65.756C70.7711 65.6533 71.2771 65.4993 71.8197 65.294L72.5457 67.428C71.8857 67.692 71.2624 67.89 70.6757 68.022C70.0891 68.154 69.5097 68.22 68.9377 68.22C67.4711 68.22 66.3491 67.7507 65.5717 66.812C64.7944 65.8733 64.4057 64.6267 64.4057 63.072V61.774C64.4057 60.2047 64.7944 58.958 65.5717 58.034C66.3491 57.0953 67.4711 56.626 68.9377 56.626C69.4951 56.626 70.0597 56.692 70.6317 56.824C71.2037 56.956 71.8051 57.1467 72.4357 57.396L71.7097 59.574C70.6537 59.1633 69.7737 58.958 69.0697 58.958C68.3217 58.958 67.7791 59.1927 67.4417 59.662C67.1044 60.1167 66.9357 60.8207 66.9357 61.774ZM81.153 59.156C80.4637 59.156 79.8037 59.266 79.173 59.486C78.557 59.6913 77.963 60.0287 77.391 60.498V68H74.861V56.846H77.259V58.562C78.007 57.858 78.6744 57.3593 79.261 57.066C79.8477 56.7727 80.4784 56.626 81.153 56.626V59.156ZM85.9649 54.734H83.3029V52.116H85.9649V54.734ZM85.8989 68H83.3689V56.846H85.8989V68ZM94.1585 68.22C93.7918 68.22 93.4178 68.1833 93.0365 68.11C92.6698 68.0367 92.2958 67.934 91.9145 67.802V72.686H89.3845V56.846H91.7825V58.364C92.4718 57.6747 93.0585 57.2127 93.5425 56.978C94.0265 56.7433 94.5325 56.626 95.0605 56.626C96.2778 56.626 97.2165 57.0807 97.8765 57.99C98.5365 58.8993 98.8665 60.1753 98.8665 61.818V63.006C98.8665 64.6047 98.4632 65.8733 97.6565 66.812C96.8498 67.7507 95.6838 68.22 94.1585 68.22ZM94.3785 58.98C94.0412 58.98 93.6818 59.0827 93.3005 59.288C92.9338 59.4787 92.4718 59.8527 91.9145 60.41V65.514C92.6332 65.8073 93.2932 65.954 93.8945 65.954C94.7452 65.954 95.3538 65.69 95.7205 65.162C96.0872 64.634 96.2705 63.9153 96.2705 63.006V61.818C96.2705 60.8353 96.1018 60.1167 95.7645 59.662C95.4418 59.2073 94.9798 58.98 94.3785 58.98ZM108.512 67.626C108.131 67.802 107.691 67.9413 107.192 68.044C106.694 68.1613 106.188 68.22 105.674 68.22C104.824 68.22 104.142 68.044 103.628 67.692C103.115 67.34 102.741 66.8487 102.506 66.218C102.286 65.5873 102.176 64.8687 102.176 64.062V59.046H100.372V56.846H102.176V53.942H104.706V56.846H108.182V59.046H104.706V64.062C104.706 64.7367 104.831 65.206 105.08 65.47C105.344 65.7193 105.718 65.844 106.202 65.844C106.437 65.844 106.686 65.822 106.95 65.778C107.229 65.7193 107.537 65.624 107.874 65.492L108.512 67.626Z" fill="white"/>
</svg>
