<svg width="120" height="120" viewBox="0 0 120 120" fill="none" xmlns="http://www.w3.org/2000/svg">
<circle cx="60" cy="60" r="60" fill="#A06A82"/>
<path d="M33.708 62.5V68H31.068V53.04H36.062C37.5727 53.04 38.7313 53.4287 39.538 54.206C40.3593 54.9687 40.77 55.9953 40.77 57.286V58.232C40.77 59.0827 40.5867 59.8307 40.22 60.476C39.8533 61.1213 39.3253 61.6127 38.636 61.95C39.8387 64.0033 40.8653 66.02 41.716 68H38.702C37.9687 66.1667 37.096 64.3333 36.084 62.5H33.708ZM36.062 55.46H33.708V60.08H36.062C36.7073 60.08 37.1987 59.9187 37.536 59.596C37.888 59.2587 38.064 58.804 38.064 58.232V57.286C38.064 56.7287 37.888 56.2887 37.536 55.966C37.1987 55.6287 36.7073 55.46 36.062 55.46ZM52.6143 67.362C51.8516 67.67 51.1329 67.89 50.4583 68.022C49.7836 68.154 49.1456 68.22 48.5443 68.22C46.8869 68.22 45.6329 67.7507 44.7823 66.812C43.9316 65.8733 43.5063 64.6267 43.5063 63.072V61.752C43.5063 60.7107 43.6969 59.8087 44.0783 59.046C44.4596 58.2833 45.0023 57.6893 45.7063 57.264C46.4103 56.8387 47.2389 56.626 48.1923 56.626C48.9696 56.626 49.6956 56.7873 50.3703 57.11C51.0596 57.418 51.6169 57.9093 52.0423 58.584C52.4823 59.244 52.7023 60.0947 52.7023 61.136C52.7023 61.444 52.6803 61.774 52.6363 62.126C52.5923 62.4633 52.5189 62.8227 52.4163 63.204H45.9483C45.9776 64.1133 46.2049 64.7953 46.6303 65.25C47.0556 65.7047 47.7376 65.932 48.6763 65.932C49.1749 65.932 49.6883 65.8733 50.2163 65.756C50.7589 65.6387 51.3163 65.4627 51.8883 65.228L52.6143 67.362ZM48.1923 58.76C47.5176 58.76 46.9896 58.98 46.6083 59.42C46.2416 59.8453 46.0289 60.4613 45.9703 61.268H50.1943C50.2089 61.1947 50.2163 61.1287 50.2163 61.07C50.2163 60.9967 50.2163 60.9307 50.2163 60.872C50.2163 60.168 50.0183 59.64 49.6223 59.288C49.2263 58.936 48.7496 58.76 48.1923 58.76ZM62.1509 68V66.482C61.4762 67.1567 60.8896 67.6187 60.3909 67.868C59.9069 68.1027 59.4009 68.22 58.8729 68.22C57.6702 68.22 56.7316 67.7653 56.0569 66.856C55.3969 65.9467 55.0669 64.6707 55.0669 63.028V61.84C55.0669 60.2413 55.4702 58.9727 56.2769 58.034C57.0836 57.0953 58.2496 56.626 59.7749 56.626C60.1562 56.626 60.5302 56.6627 60.8969 56.736C61.2782 56.8093 61.6522 56.912 62.0189 57.044V51.72H64.5489V68H62.1509ZM57.6629 63.028C57.6629 64.0107 57.8242 64.7293 58.1469 65.184C58.4842 65.6387 58.9536 65.866 59.5549 65.866C59.8922 65.866 60.2516 65.7707 60.6329 65.58C61.0142 65.3747 61.4762 64.9933 62.0189 64.436V59.332C61.3002 59.0387 60.6402 58.892 60.0389 58.892C59.1882 58.892 58.5796 59.156 58.2129 59.684C57.8462 60.212 57.6629 60.9307 57.6629 61.84V63.028ZM74.6789 68V66.526C74.0042 67.1127 73.3735 67.5453 72.7869 67.824C72.2002 68.088 71.6062 68.22 71.0049 68.22C70.0075 68.22 69.2375 67.8827 68.6949 67.208C68.1522 66.5187 67.8809 65.558 67.8809 64.326V56.846H70.4109V64.018C70.4109 65.25 70.8655 65.866 71.7749 65.866C72.1415 65.866 72.5375 65.778 72.9629 65.602C73.4029 65.426 73.9309 65.0887 74.5469 64.59V56.846H77.0769V68H74.6789ZM86.4563 68L84.1463 64.26L81.8803 68H79.2403L82.8483 62.28L79.4823 56.846H82.2103L84.2783 60.168L86.2803 56.846H88.9203L85.5543 62.17L89.1843 68H86.4563Z" fill="white"/>
</svg>
